<svg width="500" height="500" viewBox="0 0 500 500" fill="none" xmlns="http://www.w3.org/2000/svg">
<circle cx="250" cy="250" r="250" fill="#3273DC"/>
<path d="M184.8 349C179.8 349 175.7 348 172.5 346C169.5 344 167.4 341.3 166.2 337.9C165.2 334.3 165.2 330.4 166.2 326.2C167.4 321.8 169.7 317.3 173.1 312.7L287.7 157.3V169.6H181.8C176.2 169.6 171.9 168.2 168.9 165.4C166.1 162.6 164.7 158.6 164.7 153.4C164.7 148.2 166.1 144.3 168.9 141.7C171.9 138.9 176.2 137.5 181.8 137.5H306C311 137.5 315 138.5 318 140.5C321.2 142.5 323.3 145.2 324.3 148.6C325.5 152 325.5 155.9 324.3 160.3C323.3 164.7 321.1 169.2 317.7 173.8L203.1 328.9V316.9H313.5C319.1 316.9 323.3 318.3 326.1 321.1C329.1 323.7 330.6 327.6 330.6 332.8C330.6 338 329.1 342 326.1 344.8C323.3 347.6 319.1 349 313.5 349H184.8Z" fill="white"/>
</svg>
